#!OML:ASF C:\Vicon Data\Big\jianyuan-13\jianyuan\Session 1\Capture.male.ASF
:FULLY-SPECIFIED
:DEGREES
181
root -9.074397 17.462504 -12.248649 8.005620 -4.221296 4.249482
lowerback -10.659457 0.457604 -5.339734 
upperback 2.746366 1.502641 -1.607777 
thorax 8.851421 0.489487 1.563228 
lowerneck -3.465171 -2.829527 1.960117 
upperneck 23.915002 -3.804799 -1.453958 
head 7.859881 -1.754019 -1.101545 
rclavicle 0.000000 0.000000 
rhumerus -32.175800 -15.476812 -83.589530 
rradius 30.954354 
rwrist 30.418496 
rhand -18.277309 -17.518712 
rfingers 0.000000 
rthumb 8.002668 -47.347241 
lclavicle 0.000000 0.000000 
lhumerus -49.405006 50.736984 53.522603 
lradius 21.028171 
lwrist -75.611654 
lhand -23.000435 2.654805 
lfingers 0.000000 
lthumb 3.442678 32.606777 
rfemur -30.956844 -1.776740 13.033959 
rtibia 68.573148 
rfoot -9.796142 -8.289428 
rtoes -27.123890 
lfemur -17.725923 -4.997152 -29.677965 
ltibia 20.150033 
lfoot -7.025784 -5.672292 
ltoes -21.222930 
182
root -9.074932 17.458445 -12.198972 7.947289 -4.012966 4.265278
lowerback -10.641909 0.362289 -5.353676 
upperback 2.817843 1.375515 -1.562076 
thorax 8.926304 0.422853 1.596991 
lowerneck -3.530856 -2.829694 1.901462 
upperneck 23.930702 -3.793772 -1.483525 
head 7.877623 -1.756402 -1.102101 
rclavicle 0.000000 0.000000 
rhumerus -32.235874 -15.514624 -83.435419 
rradius 30.857858 
rwrist 30.305940 
rhand -18.340493 -17.542959 
rfingers 0.000000 
rthumb 7.941723 -47.373735 
lclavicle 0.000000 0.000000 
lhumerus -47.247373 49.648505 56.298207 
lradius 21.308305 
lwrist -74.083183 
lhand -22.836352 2.940953 
lfingers 0.000000 
lthumb 3.601164 32.890318 
rfemur -31.301377 -1.286753 12.818036 
rtibia 68.201102 
rfoot -10.126966 -8.496131 
rtoes -27.164934 
lfemur -17.524763 -5.111840 -29.722950 
ltibia 20.272287 
lfoot -7.191157 -5.802927 
ltoes -21.155398 
183
root -9.073539 17.455273 -12.152898 7.937409 -3.851777 4.268553
lowerback -10.599956 0.307191 -5.317948 
upperback 2.835648 1.293335 -1.546368 
thorax 8.926891 0.384334 1.578456 
lowerneck -3.488897 -2.827169 1.905518 
upperneck 23.904358 -3.783563 -1.510755 
head 7.860621 -1.753917 -1.109762 
rclavicle 0.000000 0.000000 
rhumerus -32.331469 -15.798620 -83.202967 
rradius 30.651413 
rwrist 30.539812 
rhand -18.272784 -17.364408 
rfingers 0.000000 
rthumb 8.007100 -47.192778 
lclavicle 0.000000 0.000000 
lhumerus -45.505677 48.818999 58.456362 
lradius 21.506738 
lwrist -73.022567 
lhand -22.719418 3.005983 
lfingers 0.000000 
lthumb 3.714078 32.953379 
rfemur -31.729004 -0.742824 12.573206 
rtibia 67.791210 
rfoot -10.519275 -8.631622 
rtoes -26.446339 
lfemur -17.403102 -5.199138 -29.757628 
ltibia 20.411903 
lfoot -7.363985 -5.911833 
ltoes -21.265689 
184
root -9.073471 17.450647 -12.104993 7.887692 -3.641193 4.289780
lowerback -10.551809 0.238479 -5.327169 
upperback 2.888950 1.200723 -1.532779 
thorax 8.962856 0.336960 1.581005 
lowerneck -3.475388 -2.838056 1.918559 
upperneck 23.875245 -3.798785 -1.514820 
head 7.847765 -1.760644 -1.113699 
rclavicle 0.000000 0.000000 
rhumerus -32.467794 -15.888808 -83.024127 
rradius 30.582533 
rwrist 30.848778 
rhand -18.074715 -17.389291 
rfingers 0.000000 
rthumb 8.198242 -47.210193 
lclavicle 0.000000 0.000000 
lhumerus -44.528392 49.185248 59.357113 
lradius 21.406370 
lwrist -73.098433 
lhand -22.889594 2.790398 
lfingers 0.000000 
lthumb 3.549727 32.740519 
rfemur -32.091340 -0.285099 12.327678 
rtibia 67.368935 
rfoot -10.840838 -8.777605 
rtoes -25.765158 
lfemur -17.228204 -5.240463 -29.812003 
ltibia 20.551548 
lfoot -7.475766 -6.123134 
ltoes -21.251325 
185
root -9.073198 17.443010 -12.058759 7.839764 -3.404962 4.332638
lowerback -10.452328 0.145788 -5.340150 
upperback 2.910994 1.071269 -1.517807 
thorax 8.937007 0.273566 1.580029 
lowerneck -3.449495 -2.841165 1.896839 
upperneck 23.874599 -3.797769 -1.525762 
head 7.843070 -1.763093 -1.113058 
rclavicle 0.000000 0.000000 
rhumerus -32.662871 -15.758208 -82.843302 
rradius 30.517519 
rwrist 30.933969 
rhand -18.021443 -17.509635 
rfingers 0.000000 
rthumb 8.249642 -47.328584 
lclavicle 0.000000 0.000000 
lhumerus -43.757165 49.643439 60.052771 
lradius 21.295703 
lwrist -73.666688 
lhand -23.050931 2.622106 
lfingers 0.000000 
lthumb 3.393904 32.574832 
rfemur -32.459678 0.146104 12.065705 
rtibia 66.910021 
rfoot -11.131901 -8.943021 
rtoes -25.767862 
lfemur -17.061785 -5.233066 -29.894187 
ltibia 20.686640 
lfoot -7.548701 -6.399287 
ltoes -20.968230 
